<svg width="46" height="46" viewBox="0 0 46 46" fill="none" xmlns="http://www.w3.org/2000/svg">
<circle cx="23" cy="23" r="23" fill="#E60012"/>
<path d="M23 32L21.84 30.9207C17.7201 27.1039 15.0002 24.586 15.0002 21.4961C14.9948 20.9038 15.1049 20.3163 15.3241 19.7681C15.5434 19.2198 15.8673 18.7218 16.277 18.3032C16.6867 17.8845 17.174 17.5537 17.7102 17.33C18.2465 17.1062 18.821 16.9941 19.4001 17.0002C20.0846 17.0056 20.7601 17.1608 21.3811 17.4555C22.0021 17.7503 22.5541 18.1776 23 18.7088C23.4459 18.1776 23.9979 17.7503 24.6189 17.4555C25.2399 17.1608 25.9154 17.0056 26.5999 17.0002C27.179 16.9941 27.7535 17.1062 28.2898 17.33C28.826 17.5537 29.3133 17.8845 29.723 18.3032C30.1327 18.7218 30.4566 19.2198 30.6759 19.7681C30.8951 20.3163 31.0052 20.9038 30.9998 21.4961C30.9998 24.586 28.2799 27.1039 24.16 30.9289L23 32Z" fill="white"/>
</svg>
